<?xml version="1.0" standalone="no"?>
<!DOCTYPE svg PUBLIC "-//W3C//DTD SVG 20010904//EN"
 "http://www.w3.org/TR/2001/REC-SVG-20010904/DTD/svg10.dtd">
<svg version="1.0" xmlns="http://www.w3.org/2000/svg"
 width="1004.000000pt" height="1004.000000pt" viewBox="0 0 1004.000000 1004.000000"
 preserveAspectRatio="xMidYMid meet">
<metadata>
Created by potrace 1.14, written by Peter Selinger 2001-2017
</metadata>
<g transform="translate(0.000000,1004.000000) scale(0.100000,-0.100000)"
fill="#000000" stroke="none">
<path d="M4797 10024 c-1 -1 -54 -5 -117 -9 -63 -3 -128 -8 -145 -10 -16 -3
-70 -9 -120 -15 -111 -14 -158 -20 -280 -41 -274 -45 -740 -178 -980 -279
-410 -173 -700 -332 -1030 -564 -55 -38 -102 -72 -105 -76 -3 -3 -21 -17 -40
-30 -19 -13 -37 -27 -40 -30 -3 -3 -27 -23 -55 -45 -164 -130 -465 -413 -590
-556 -22 -25 -53 -61 -70 -79 -170 -195 -420 -549 -555 -785 -71 -123 -191
-362 -240 -475 -18 -41 -41 -94 -51 -117 -11 -23 -19 -46 -19 -50 0 -4 -13
-41 -30 -81 -104 -256 -218 -692 -265 -1017 -4 -22 -8 -51 -10 -65 -2 -14 -7
-52 -11 -85 -3 -33 -8 -67 -9 -75 -20 -106 -27 -713 -12 -930 5 -63 10 -117
12 -120 1 -3 6 -39 9 -79 4 -41 9 -77 11 -80 1 -4 6 -33 9 -66 4 -33 9 -67 11
-75 2 -8 7 -30 10 -47 13 -79 17 -103 36 -188 72 -326 192 -695 305 -943 19
-41 34 -76 34 -78 0 -9 147 -298 179 -352 17 -29 31 -55 31 -57 0 -12 195
-314 273 -423 281 -393 625 -751 1022 -1060 357 -279 846 -552 1276 -713 292
-109 616 -199 874 -244 50 -8 101 -17 115 -20 14 -3 50 -8 80 -11 30 -3 62 -7
70 -9 13 -3 83 -11 175 -20 355 -34 865 -21 1185 30 14 2 57 9 95 15 267 41
791 180 940 249 11 6 63 26 115 47 673 262 1362 744 1855 1298 39 43 75 84 80
90 32 35 152 185 220 276 257 346 478 742 637 1144 68 170 174 498 193 593 1
10 10 45 18 78 9 33 18 71 21 85 3 14 12 61 21 105 9 44 18 91 20 105 2 14 6
34 9 46 2 12 7 45 11 74 4 29 8 61 10 71 2 10 6 45 10 78 3 33 8 68 10 79 26
138 27 914 0 1052 -2 9 -6 43 -9 75 -8 73 -12 102 -37 245 -26 155 -29 172
-35 192 -3 10 -7 30 -10 45 -6 34 -61 256 -74 298 -49 158 -67 214 -97 300
-19 55 -38 109 -43 120 -5 11 -34 81 -65 155 -89 213 -240 506 -341 663 -24
37 -44 69 -44 72 0 5 -149 220 -204 295 -240 326 -584 682 -901 934 -33 26
-67 53 -76 60 -8 7 -58 43 -110 80 -52 37 -102 74 -112 82 -9 7 -19 14 -21 14
-2 0 -36 22 -77 49 -194 128 -559 324 -734 396 -38 15 -88 36 -110 45 -69 30
-315 117 -435 154 -143 44 -279 78 -440 110 -233 47 -424 74 -665 92 -81 6
-562 13 -568 8z m-1202 -2508 c90 -9 167 -22 283 -47 l92 -21 0 -38 0 -37 -57
13 c-55 13 -180 36 -268 50 -69 10 -387 13 -460 3 -280 -36 -475 -86 -705
-181 -118 -49 -334 -157 -406 -203 -30 -19 -56 -35 -59 -35 -7 0 -252 -167
-300 -203 -76 -59 -230 -182 -260 -208 -70 -60 -231 -203 -240 -213 -6 -6 -22
-21 -36 -33 l-25 -23 2 32 c2 32 18 50 160 178 67 61 226 194 294 246 36 27
67 52 70 55 3 3 53 41 112 83 558 400 1093 596 1618 590 63 -1 147 -4 185 -8z
m185 -277 c0 5 42 9 93 10 l94 2 1 -36 c1 -35 1 -35 -41 -35 -67 -1 -205 -8
-297 -16 -121 -10 -118 -10 -192 -18 -58 -7 -68 -5 -77 11 -6 10 -11 14 -11 8
0 -5 -5 -3 -10 5 -7 12 -9 10 -8 -7 2 -14 7 -19 17 -15 10 4 12 1 7 -7 -5 -7
-17 -11 -27 -8 -10 3 -21 1 -24 -4 -3 -4 -18 -8 -33 -7 -15 0 -49 -4 -77 -10
-37 -8 -54 -7 -64 1 -12 9 -13 9 -7 0 7 -13 -9 -18 -47 -15 -10 1 -16 -2 -13
-7 3 -5 -5 -8 -18 -8 -17 0 -23 4 -19 14 3 7 8 12 11 9 2 -3 13 -1 23 4 12 7
19 6 23 -3 3 -6 4 -3 3 7 -1 10 4 21 11 23 6 3 10 -1 9 -9 -2 -7 -2 -10 0 -5
3 4 11 7 19 7 8 0 14 4 14 8 0 12 -45 8 -62 -5 -8 -7 -18 -10 -21 -6 -4 3 -7
1 -7 -7 0 -10 -3 -10 -17 1 -13 11 -17 11 -21 1 -3 -10 -7 -10 -20 0 -10 8
-13 9 -9 1 4 -6 2 -13 -4 -15 -7 -2 -5 -9 5 -17 14 -12 16 -12 11 1 -4 9 0 15
10 15 17 0 19 -6 5 -27 -5 -8 -12 -11 -16 -7 -4 4 -13 2 -21 -4 -7 -6 -13 -8
-13 -5 0 4 -9 2 -21 -4 -15 -9 -24 -8 -37 2 -14 11 -15 11 -9 -5 4 -12 3 -16
-4 -11 -6 4 -15 0 -20 -7 -6 -10 -9 -11 -9 -1 0 6 -5 12 -11 12 -5 0 -7 -6 -3
-12 5 -8 0 -7 -11 2 -17 14 -18 13 -12 -2 3 -10 2 -18 -3 -18 -6 0 -10 7 -10
15 0 20 -14 19 -31 -2 -12 -15 -12 -16 6 -9 16 6 17 5 8 -5 -10 -10 -16 -9
-29 2 -16 12 -17 12 -12 -2 4 -9 1 -16 -7 -16 -7 0 -11 6 -8 14 4 9 0 11 -11
7 -9 -3 -14 -10 -11 -14 3 -5 0 -12 -6 -16 -8 -4 -9 -3 -5 4 4 7 5 12 2 12 -2
0 -12 3 -21 7 -15 5 -16 3 -5 -17 8 -15 8 -20 1 -16 -6 4 -11 2 -11 -5 0 -7
-3 -9 -6 -6 -4 3 -16 2 -27 -4 -15 -8 -18 -8 -12 1 5 8 3 11 -6 8 -8 -3 -13
-12 -11 -19 2 -8 0 -11 -4 -7 -4 4 -14 2 -23 -5 -14 -11 -15 -10 -1 7 14 18
13 18 -8 12 -12 -4 -22 -3 -22 2 0 5 12 9 27 8 14 0 28 4 30 11 3 8 -4 10 -22
7 -18 -3 -24 -1 -20 6 4 6 12 9 18 7 7 -3 27 5 46 16 19 12 31 15 27 9 -8 -14
-5 -15 19 -6 13 6 14 9 3 16 -9 6 -5 7 11 3 15 -5 21 -3 17 3 -4 7 1 9 13 7
11 -2 25 2 31 10 6 7 19 12 28 10 9 -1 21 3 25 9 5 6 6 3 3 -9 -6 -19 -5 -19
11 1 10 12 26 20 36 19 9 -2 17 1 17 7 0 6 7 8 15 5 8 -4 17 -1 21 4 3 6 15 9
25 6 11 -3 19 0 20 6 0 7 3 6 6 -2 4 -11 7 -11 13 0 9 14 29 20 72 21 15 1 25
4 23 8 -2 4 9 6 26 5 16 -1 32 2 35 7 9 14 24 9 25 -9 0 -13 3 -12 10 6 6 15
14 21 25 17 8 -3 25 -1 37 5 16 9 22 9 25 0 2 -6 8 -11 13 -11 6 0 7 5 4 10
-7 11 -5 11 35 15 14 1 42 5 63 10 31 6 40 4 52 -11 13 -18 13 -18 12 1 -2 16
5 20 43 21 25 1 45 3 45 4 0 1 22 4 49 6 27 2 52 6 54 9 3 3 12 -1 20 -8 13
-9 14 -9 8 0 -5 10 5 12 39 10 25 -1 45 1 45 5 0 4 11 3 25 -2 14 -5 25 -6 25
-1z m-1247 -256 c-13 -8 -23 -23 -23 -32 1 -13 3 -13 15 3 16 21 21 10 6 -13
-10 -16 -31 -6 -31 14 0 13 37 46 50 44 3 0 -5 -7 -17 -16z m-45 -20 c0 -10 3
-27 8 -38 7 -17 6 -18 -8 -5 -9 8 -14 18 -11 23 2 4 -1 7 -6 7 -6 0 -11 5 -11
11 0 5 5 7 10 4 6 -3 10 -1 10 4 0 6 2 11 4 11 3 0 4 -8 4 -17z m-36 -28 c11
-15 10 -25 -4 -25 -6 0 -8 3 -4 7 3 4 -4 13 -16 20 -21 12 -21 13 -3 11 11 -2
23 -7 27 -13z m-27 -15 c3 -4 -4 -19 -16 -31 l-20 -24 18 30 c17 27 17 29 1
22 -10 -3 -19 -3 -22 1 -3 4 4 8 14 9 11 1 22 -2 25 -7z m-42 -17 c3 -5 0 -17
-4 -28 -9 -19 -9 -19 -5 2 3 16 -2 23 -18 26 l-21 4 22 2 c12 0 24 -2 26 -6z
m-73 -25 c0 -4 -4 -8 -9 -8 -6 0 -12 4 -15 8 -3 5 1 9 9 9 8 0 15 -4 15 -9z
m-60 -18 c0 -5 -5 -10 -11 -10 -5 0 -7 5 -4 10 3 6 8 10 11 10 2 0 4 -4 4 -10z
m95 0 c3 -5 1 -10 -4 -10 -6 0 -11 5 -11 10 0 6 2 10 4 10 3 0 8 -4 11 -10z
m-34 -23 c-10 -9 -11 -8 -5 6 3 10 9 15 12 12 3 -3 0 -11 -7 -18z m-48 -18
c-8 -8 -13 -7 -18 2 -5 8 -4 10 3 5 7 -4 12 -2 12 5 0 7 3 9 7 6 4 -4 2 -12
-4 -18z m-43 -3 c-6 -6 -18 -5 -32 1 -21 10 -21 10 9 9 19 -1 28 -5 23 -10z
m-86 -14 c3 -5 -1 -9 -9 -9 -8 0 -12 4 -9 9 3 4 7 8 9 8 2 0 6 -4 9 -8z m46 4
c0 -2 -8 -10 -17 -17 -16 -13 -17 -12 -4 4 13 16 21 21 21 13z m10 -26 c0 -5
-5 -10 -11 -10 -5 0 -7 5 -4 10 3 6 8 10 11 10 2 0 4 -4 4 -10z m-87 -13 c7 3
8 2 4 -2 -10 -11 -37 -15 -37 -6 0 14 14 23 18 12 2 -6 9 -8 15 -4z m-43 -21
c0 -2 -8 -10 -17 -17 -16 -13 -17 -12 -4 4 13 16 21 21 21 13z m3 -31 c-3 -9
-8 -14 -10 -11 -3 3 -2 9 2 15 9 16 15 13 8 -4z m-56 -22 c0 -9 -4 -10 -14 -2
-7 6 -13 12 -13 14 0 1 6 2 13 2 8 0 14 -6 14 -14z m-102 -32 c3 -5 2 -12 -3
-15 -5 -3 -9 1 -9 9 0 17 3 19 12 6z m-15 -41 c0 -5 -5 -10 -11 -10 -5 0 -7 5
-4 10 3 6 8 10 11 10 2 0 4 -4 4 -10z m-140 -94 c0 -3 -4 -8 -10 -11 -5 -3
-10 -1 -10 4 0 6 5 11 10 11 6 0 10 -2 10 -4z m-50 -40 c0 -2 -8 -10 -17 -17
-16 -13 -17 -12 -4 4 13 16 21 21 21 13z m5955 -641 c169 -35 224 -49 312 -79
364 -128 668 -365 875 -683 74 -113 106 -172 142 -263 15 -36 31 -74 36 -85
27 -62 74 -244 85 -330 3 -22 8 -60 11 -85 20 -144 6 -392 -32 -559 -73 -322
-236 -614 -479 -854 -116 -116 -317 -257 -455 -319 -137 -63 -192 -83 -290
-109 -67 -18 -167 -38 -216 -44 -27 -4 -60 -8 -74 -11 -32 -5 -298 -6 -325 0
-11 2 -47 7 -80 10 -217 25 -515 137 -703 265 -224 152 -482 441 -595 667 -61
121 -81 172 -117 306 -41 149 -38 135 -59 287 -13 100 -6 354 14 461 84 465
336 870 692 1111 76 52 274 153 358 183 28 10 59 22 70 26 17 8 120 39 150 46
6 1 48 11 95 22 47 11 103 23 125 26 22 3 58 9 80 12 22 3 42 8 44 10 7 6 300
-3 336 -11z"/>
<path d="M3173 7155 c0 -8 4 -15 9 -15 4 0 8 4 8 9 0 6 -4 12 -8 15 -5 3 -9
-1 -9 -9z"/>
<path d="M3232 7156 c7 -8 15 -12 17 -11 5 6 -10 25 -20 25 -5 0 -4 -6 3 -14z"/>
<path d="M3274 7159 c-3 -6 -2 -15 4 -21 6 -6 12 -6 17 3 5 8 4 10 -3 5 -7 -4
-12 -3 -12 3 0 5 6 12 13 14 9 4 9 6 0 6 -6 1 -15 -4 -19 -10z"/>
<path d="M3200 7156 c0 -2 7 -9 15 -16 9 -7 15 -8 15 -2 0 5 -7 12 -15 16 -8
3 -15 4 -15 2z"/>
<path d="M3150 7120 c0 -5 7 -7 15 -4 8 4 15 8 15 10 0 2 -7 4 -15 4 -8 0 -15
-4 -15 -10z"/>
<path d="M2904 7098 c-3 -4 -9 -6 -14 -3 -5 3 -11 1 -15 -5 -4 -6 -11 -8 -16
-5 -5 4 -9 0 -9 -7 0 -10 -2 -10 -8 -1 -6 9 -11 7 -19 -6 -10 -15 -9 -19 2
-17 8 1 18 5 21 9 12 12 26 8 18 -5 -4 -7 2 -5 13 5 14 13 23 15 28 7 4 -7 11
-8 18 -2 7 5 20 8 29 7 22 -4 33 11 16 22 -18 11 -58 12 -64 1z m62 -11 c4 -3
-3 -5 -14 -2 -12 2 -24 -1 -27 -6 -4 -5 -11 -7 -16 -3 -5 3 -7 9 -5 13 6 9 52
8 62 -2z"/>
<path d="M2751 7056 c-8 -9 -11 -19 -7 -23 3 -3 6 -1 6 5 0 7 5 12 11 12 5 0
7 -6 3 -12 -5 -9 -2 -9 9 1 9 7 17 19 17 25 0 6 -4 5 -9 -3 -6 -10 -10 -10
-13 -1 -3 9 -8 7 -17 -4z"/>
<path d="M2706 7034 c-11 -8 -16 -14 -10 -14 13 0 39 18 34 24 -3 2 -14 -2
-24 -10z"/>
<path d="M2624 7009 c-3 -6 -2 -15 3 -20 11 -11 43 -2 43 13 0 5 -4 6 -10 3
-5 -3 -10 -1 -10 4 0 14 -17 14 -26 0z"/>
</g>
</svg>
