<svg width="165" height="66" viewBox="0 0 165 66" fill="none" xmlns="http://www.w3.org/2000/svg">
<g filter="url(#filter0_d_6_520)">
<path d="M38.9182 36.9885C38.0089 37.0061 39.0914 37.3694 40.2817 37.5079C40.6063 37.3002 40.9094 37.0924 41.169 36.9019C40.4331 37.0404 39.6757 37.0404 38.9182 36.9884L38.9182 36.9885ZM43.8095 36.0189C44.3506 35.4129 44.7401 34.7722 44.8917 34.097C44.7618 34.5818 44.4372 34.9973 44.1341 35.4302C42.4244 36.2786 43.9826 34.928 44.1341 34.4086C42.2945 36.244 43.8744 35.4994 43.8095 36.0189L43.8095 36.0189ZM45.6058 32.2617C45.714 30.9458 45.2812 31.3613 45.1297 31.8634C45.3028 31.95 45.4327 32.7984 45.6058 32.2617ZM35.477 14.3587C35.9531 14.4279 36.5375 14.4799 36.4509 14.5664C36.9703 14.4799 37.1002 14.3933 35.477 14.3587ZM36.4509 14.5838L36.1046 14.6357L36.4293 14.6181L36.4513 14.5835L36.4509 14.5838ZM48.3329 31.7942C48.3978 32.9716 47.9 33.543 47.4675 34.5472L46.6884 34.8588C46.0391 35.863 46.7533 35.4995 46.2988 36.2959C45.3032 37.0058 43.2471 38.5295 42.5978 38.668C42.1217 38.668 42.9225 38.2178 43.0307 38.0447C41.6888 38.7891 41.9485 39.1528 39.8924 39.6029L39.8275 39.499C34.7631 41.4036 27.7076 37.6288 27.8154 32.4694C27.7721 32.7984 27.6639 32.7118 27.5557 32.8503C27.2959 30.2015 29.092 27.5351 32.1223 26.444C35.0874 25.2666 38.5503 25.7518 40.6712 27.327C39.5025 26.1151 37.1867 24.8165 34.4381 24.9377C31.7544 24.9723 29.2222 26.3398 28.3997 27.8292C27.0146 28.5214 26.8634 30.5132 26.2571 30.8765C25.4563 35.6206 27.7721 37.681 31.7111 40.0878C32.3387 40.4167 31.8842 40.4687 31.9708 40.7284C30.6722 40.2436 29.4602 39.4993 28.4863 38.5987C29.0057 39.2048 29.5684 39.8107 30.3043 40.2782C29.0706 39.9492 27.4258 37.8888 26.9493 37.8023C29.0703 40.8496 35.5848 43.1527 38.9827 42.0096C37.4024 42.0616 35.4117 42.0272 33.637 41.5075C32.9011 41.1958 31.8843 40.5725 32.0566 40.4513C36.7099 41.8365 41.4929 41.5075 45.5185 38.9277C46.5357 38.287 47.6612 37.2136 47.9862 37.1962C47.51 37.785 48.0727 37.4733 47.7048 37.9927C48.722 36.6768 47.272 37.456 48.7653 35.7245L49.3281 36.3306C49.1116 35.2398 51.0162 33.9065 50.8214 32.1924C51.2543 31.673 51.2976 32.7639 50.8434 33.9758C51.4927 32.6253 51.0166 32.4176 51.1681 31.2918C51.3412 31.6728 51.5793 32.071 51.7092 32.4519C51.2979 31.1533 52.142 30.253 52.3368 29.5084C52.1204 29.4392 51.6875 30.0799 51.6009 28.5388C51.6229 27.8636 51.839 28.1926 51.9256 28.0194C51.7524 27.9502 51.3412 27.4307 51.0815 26.4438C51.2763 26.2187 51.5793 27.0498 51.839 27.0671C51.6659 26.288 51.3846 25.6993 51.3846 25.093C50.627 23.8287 51.1248 25.2661 50.4972 24.5562C49.6964 22.5478 51.1681 24.0888 51.2547 23.1884C52.4668 24.5906 53.1593 26.7898 53.484 27.6902C53.2459 26.582 52.8563 25.5086 52.3585 24.487C52.7264 24.6082 51.7742 22.2189 52.8347 23.7948C51.6876 20.4185 47.9213 17.2499 44.4589 15.778C44.8918 16.0896 45.4111 16.4702 45.2164 16.5397C43.485 15.726 43.788 15.6567 43.5499 15.3107C42.1432 14.8605 42.0566 15.3453 41.1263 15.3107C38.4858 14.1852 37.9664 14.3064 35.5424 13.5966L35.6506 14.0121C33.8979 13.5446 33.6161 14.1852 31.7116 14.0121C31.6034 13.9429 32.3176 13.7524 32.9236 13.6831C31.2354 13.8563 31.3003 13.4234 29.6555 13.735C30.0667 13.51 30.4995 13.3541 30.9324 13.1636C29.5472 13.2328 27.6214 13.8043 28.227 13.2848C25.9762 14.0986 21.9722 15.2238 19.7213 16.9035L19.6564 16.5226C18.6179 17.5095 15.1764 19.4834 14.8954 20.7646L14.614 20.8165C14.0729 21.544 13.7267 22.3575 13.3155 23.1194C12.6229 24.0716 12.2982 23.4829 12.3849 23.6388C10.9997 25.8723 10.3288 27.7596 9.72278 29.3006C10.134 29.8027 9.72278 32.3306 9.89592 34.3563C9.20336 44.364 18.6613 54.0773 29.0286 56.3109C30.5436 56.7437 32.7944 56.7264 34.7207 56.7784C32.4482 56.2589 32.1669 56.5013 29.9593 55.8953C28.379 55.2893 28.0115 54.6141 26.886 53.835L27.3405 54.4583C25.1329 53.835 26.0636 53.6792 24.2672 53.2292L24.7434 52.7271C24.0291 52.6752 22.8388 51.7575 22.5141 51.2554L21.735 51.273C20.8044 50.338 20.2849 49.6801 20.3282 49.1606L19.9819 49.4723C19.7006 49.0741 16.519 45.9921 18.1639 46.702C17.8609 46.4769 17.4496 46.3384 17.0168 45.6978L17.3415 45.3861C16.5407 44.5724 15.8914 43.5162 15.9347 43.1699C16.3675 43.6201 16.6489 43.7066 16.9519 43.7932C14.9391 39.8109 14.8308 43.5682 13.3159 39.7417L13.6405 39.7241C13.4024 39.4298 13.2509 39.1008 13.0561 38.7891L13.186 37.681C11.736 36.3478 12.7748 32.0192 12.9912 29.6299C13.1428 28.6603 14.2033 27.6387 15.004 26.0112L14.5062 25.942C15.4368 24.6261 19.8737 20.6784 21.9081 20.8862C22.9037 19.882 21.7134 20.8862 21.5186 20.6265C23.7045 18.8258 24.3754 19.3452 25.8471 19.0335C27.4275 18.2891 24.4836 19.3279 25.2411 18.7392C27.9898 18.1852 27.189 17.4579 30.7601 17.1809C31.128 17.3541 29.8948 17.4407 29.5698 17.6657C31.8422 16.7654 36.7985 16.9735 40.0016 18.1679C43.7242 19.553 47.9013 23.6738 48.0744 27.5522L48.2692 27.5868C48.1827 29.1278 48.5722 30.9111 47.8796 32.5387L48.3341 31.7942" fill="#726A6D"/>
<path d="M29.0057 37.9927L28.8759 38.4949C29.4819 39.1528 29.958 39.8454 30.7155 40.3475C30.1528 39.4991 29.7416 39.1528 29.0057 37.9928V37.9927ZM30.4125 37.9408C30.0879 37.6638 29.9147 37.3175 29.6983 36.9885C29.893 37.5772 30.3042 38.0793 30.6938 38.5987L30.4125 37.9408H30.4125ZM55.4101 33.5949L55.2802 33.8719C55.0422 35.257 54.5011 36.6422 53.6999 37.9234C54.5872 36.5729 55.1716 35.1012 55.4097 33.5949L55.4101 33.5949ZM35.6501 14.0124C36.2561 13.8393 37.1651 13.9085 37.8144 13.7873C36.9703 13.8393 36.1263 13.8739 35.2822 13.9605L35.6501 14.0124ZM14.0718 23.189C14.2233 24.2452 13.0762 24.6434 14.3315 23.9508C14.9808 22.7734 14.0501 23.6391 14.0718 23.189ZM12.6217 28.0543C12.9031 27.362 12.968 26.9289 13.0762 26.5307C12.2754 27.3271 12.7083 27.5003 12.6217 28.0543Z" fill="#D70751"/>
<path d="M63.3591 38.4537C63.3591 47.1215 69.116 47.1215 69.9722 47.1215C72.3635 47.1215 73.8987 46.0823 74.5482 44.2637L74.6367 47.0034C75.3748 46.9797 76.1129 46.9089 77.2937 46.9089C77.7071 46.9089 78.0613 46.9089 78.3566 46.9325C78.6518 46.9325 78.9765 46.9561 79.3308 47.0034C78.7108 46.0114 78.268 43.8149 78.268 38.9968C78.268 34.3205 78.268 26.4084 78.7699 23.9994C77.3823 24.519 76.2014 24.8735 73.5739 25.0386C74.6072 25.9361 74.6072 26.3848 74.6072 30.4471C73.8691 30.2582 72.9535 30.0455 71.3892 30.0455C64.481 30.0925 63.3591 34.8873 63.3591 38.4535V38.4537ZM74.5186 34.8397C74.4891 34.8633 74.4891 39.8231 74.4006 41.1221C74.312 42.1612 74.1939 44.405 71.4483 44.405C68.6142 44.405 67.9056 41.7833 67.6694 40.6497C67.4038 39.3979 67.4038 38.3351 67.4038 37.8864C67.4038 36.3984 67.5218 32.2889 71.8617 32.2889C73.1607 32.2889 73.8987 32.5959 74.4892 32.8322L74.5186 34.8397ZM94.5939 37.2016C94.5939 33.6117 93.7082 30.069 88.0104 30.069C80.1575 30.069 80.1575 37.0127 80.1575 38.5006C80.1575 44.7357 83.6706 47.2156 89.5456 47.2156C92.1731 47.2156 93.4425 46.9086 94.1216 46.7433C94.0921 45.6333 94.2692 44.9247 94.5054 43.98C93.7082 44.3815 92.6455 44.901 90.3427 44.901C84.3497 44.901 84.2611 40.5317 84.2611 39.0201H94.5057L94.5943 37.2016L94.5939 37.2016ZM84.2323 36.8945C84.2619 34.3438 84.9114 32.0528 87.6569 32.0528C90.6682 32.0528 90.8749 34.6981 90.8158 36.8945H84.2323ZM96.0701 41.8783C96.0701 44.1456 96.0701 45.4446 95.5977 46.4365C97.1624 46.9325 99.1404 47.2159 101.473 47.2159C102.978 47.2159 107.318 47.2159 109.68 43.3662C110.802 41.5713 111.186 39.1858 111.186 37.3676C111.186 36.2575 111.038 33.8249 109.916 32.29C108.853 30.8493 107.111 30.1171 105.252 30.1171C101.561 30.1171 100.469 32.5733 99.908 33.8487C99.908 32.29 99.9375 26.8106 100.262 24.0001C97.7528 24.9211 96.2176 25.0865 94.5644 25.2046C96.07 25.7005 96.07 27.7317 96.07 34.3447V41.8789L96.0701 41.8783ZM107.111 38.5251C107.111 41.3829 106.462 45.2327 102.004 45.2327C101.384 45.2327 100.616 45.1382 100.115 45.0437C100.026 43.9337 100.026 42.0207 100.026 39.8242C100.026 37.179 100.38 35.7855 100.646 35.1242C101.443 32.9513 103.274 32.9041 103.598 32.9041C106.55 32.9041 107.111 36.1161 107.111 38.5252L107.111 38.5251ZM118.596 47.0273C117.828 46.9328 117.297 46.862 116.175 46.862C114.935 46.862 114.108 46.9328 113.223 47.0273C113.606 46.4368 113.754 46.1532 113.872 44.1695C114.02 41.4298 114.079 34.1082 113.784 32.5731C113.577 31.3922 113.252 31.2269 112.721 30.9199C115.88 30.6837 116.765 30.4947 118.212 29.9279C117.917 31.2741 117.858 31.9591 117.858 34.0138C117.769 44.6183 117.74 45.752 118.596 47.0273L118.596 47.0273ZM120.337 42.0905C120.337 44.0272 121.076 45.9639 123.231 46.7905C124.205 47.1212 125.15 47.1212 125.474 47.1212C129.017 47.1212 130.198 45.0191 130.936 43.7438C130.906 45.09 130.936 45.9166 131.054 47.0031C131.733 46.9795 132.442 46.9086 133.593 46.9086C134.242 46.9086 134.862 46.9795 135.512 47.0031C135.099 46.4835 134.862 46.1765 134.744 44.9719C134.656 43.8146 134.656 42.634 134.656 41.0041L134.685 34.7218C134.685 32.3835 133.918 30.069 128.131 30.069C124.323 30.069 122.079 30.9901 120.987 31.4624C121.459 32.1474 121.843 32.7142 122.168 34.0368C123.673 32.9976 125.622 32.4308 127.629 32.4308C130.818 32.4308 130.818 34.1312 130.818 36.5167C130.08 36.4931 129.46 36.4223 128.426 36.4223C123.555 36.4692 120.337 37.981 120.337 42.0906L120.337 42.0905ZM130.906 38.3117C130.818 40.2484 130.788 41.5946 130.139 42.681C129.342 44.0745 127.984 44.476 126.98 44.476C124.677 44.476 124.175 42.9408 124.175 41.4293C124.175 38.5479 127.393 38.3117 128.869 38.3117L130.906 38.3117ZM153.078 43.9799C153.107 45.0191 153.107 46.1292 153.668 47.0267C152.812 46.9558 152.31 46.8614 150.746 46.8614C149.831 46.8614 149.329 46.9322 148.591 47.0267C148.738 46.6252 148.827 46.4834 148.886 45.9403C149.004 45.2317 149.093 42.8699 149.093 42.0433V38.7131C149.093 37.2724 149.093 35.1704 148.975 34.4382C148.886 33.9187 148.709 32.5016 146.465 32.5016C144.281 32.5016 143.543 33.8006 143.277 34.8394C142.982 35.9259 142.982 37.0834 142.982 41.6414C143.011 45.5856 143.011 45.9399 143.395 47.0263C142.745 46.9555 141.948 46.9082 140.767 46.9082C139.852 46.9082 139.232 46.9318 138.465 47.0263C138.73 46.5304 138.878 46.2942 138.966 44.5701C139.055 42.8696 139.203 34.556 138.848 32.5958C138.671 31.3912 138.258 31.1078 137.845 30.8008C140.974 30.6827 141.948 30.2812 142.923 29.8797V33.1396C143.395 32.1949 144.339 30.0696 148.207 30.0696C153.019 30.0696 153.048 32.8801 153.078 34.7223V43.9806" fill="#726A6D"/>
<path d="M118.92 25.5582L115.732 28.109L112.544 25.5582L115.732 23.0075L118.92 25.5582Z" fill="#D70751"/>
</g>
<defs>
<filter id="filter0_d_6_520" x="-4" y="0" width="173" height="74" filterUnits="userSpaceOnUse" color-interpolation-filters="sRGB">
<feFlood flood-opacity="0" result="BackgroundImageFix"/>
<feColorMatrix in="SourceAlpha" type="matrix" values="0 0 0 0 0 0 0 0 0 0 0 0 0 0 0 0 0 0 127 0" result="hardAlpha"/>
<feOffset dy="4"/>
<feGaussianBlur stdDeviation="2"/>
<feComposite in2="hardAlpha" operator="out"/>
<feColorMatrix type="matrix" values="0 0 0 0 0 0 0 0 0 0 0 0 0 0 0 0 0 0 0.25 0"/>
<feBlend mode="normal" in2="BackgroundImageFix" result="effect1_dropShadow_6_520"/>
<feBlend mode="normal" in="SourceGraphic" in2="effect1_dropShadow_6_520" result="shape"/>
</filter>
</defs>
</svg>
