<svg width="195" height="60" viewBox="0 0 195 60" fill="none" xmlns="http://www.w3.org/2000/svg">
<g filter="url(#filter0_d_30_520)">
<path d="M55.708 26.0933C55.7726 23.9083 55.3523 22.135 54.447 20.7417C53.8326 19.8233 52.992 19.1583 51.9896 18.81C50.9226 18.43 49.5 18.24 47.754 18.24H42.1603C42.0633 18.24 41.9986 18.3033 41.9986 18.3667L32.9453 50.73C32.9453 50.7933 32.9453 50.825 32.9776 50.8883C33.01 50.92 33.0746 50.9517 33.107 50.9517H36.793C41.061 50.9517 44.2943 50.2233 46.3636 48.7983C48.045 47.6583 49.5 45.98 50.6963 43.8267C51.925 41.5783 53.0566 38.6333 54.059 35.055C55.0936 31.2233 55.6433 28.1833 55.708 26.0933ZM38.927 46.835L45.7816 22.2933H46.202C48.5946 22.2933 49.9203 23.18 50.3083 24.9533C50.6963 26.79 50.179 30.2417 48.821 35.1817C47.5276 39.7733 46.1696 42.9083 44.7793 44.4917C43.486 45.98 41.5136 46.7717 38.927 46.835Z" fill="#726A6D"/>
<path d="M69.4173 39.8367C69.967 37.8733 70.3226 36.1317 70.4196 34.7067C70.549 33.25 70.4196 32.0467 70.0963 31.0967C69.773 30.115 69.191 29.3867 68.3826 28.9433C67.5743 28.4683 66.5396 28.2467 65.2786 28.2467C60.4933 28.2467 56.969 32.0783 54.8673 39.5833C53.5416 44.3017 53.6063 47.595 55.029 49.3683C55.8696 50.445 57.2276 50.9833 59.0383 50.9833C63.856 50.9833 67.348 47.2467 69.4173 39.8367V39.8367ZM60.17 46.8983C59.2646 46.8983 58.7796 46.3917 58.6826 45.3783C58.5856 44.3017 58.9413 42.37 59.7173 39.615C60.4933 36.86 61.237 34.8967 61.916 33.82C62.6273 32.775 63.4356 32.2367 64.3733 32.2367C65.2786 32.2367 65.7636 32.7117 65.8283 33.7883C65.893 34.8967 65.5373 36.86 64.7613 39.6783C63.9853 42.4333 63.2416 44.3333 62.5626 45.3467C61.8836 46.3917 61.0753 46.8983 60.17 46.8983V46.8983Z" fill="#726A6D"/>
<path d="M96.0276 29.8617C95.3809 29.0067 94.2169 28.595 92.5679 28.595C90.5956 28.595 88.7526 29.545 87.1036 31.3817C86.8126 29.5133 85.6163 28.595 83.5793 28.595C81.8009 28.595 80.1196 29.45 78.5029 31.1283L79.0526 29.165C79.0526 29.1017 79.0526 29.07 79.0203 29.0067C78.9879 28.975 78.9233 28.9433 78.8909 28.9433H74.7199C74.6229 28.9433 74.5583 29.0067 74.5583 29.07L68.4796 50.7617C68.4796 50.825 68.4796 50.8567 68.5119 50.92C68.5443 50.9517 68.6089 50.9833 68.6413 50.9833H72.8123C72.9093 50.9833 72.9739 50.92 72.9739 50.8567L76.9833 36.575C77.4036 35.0867 77.8886 34.0417 78.4706 33.44C79.0203 32.8383 79.7316 32.5533 80.6693 32.5533C81.0896 32.5533 81.4129 32.6167 81.6716 32.7433C81.8979 32.87 82.0596 33.06 82.1243 33.345C82.2213 33.63 82.2213 34.0417 82.1566 34.5483C82.0919 35.055 81.9626 35.72 81.7363 36.48L77.7269 50.7617C77.7269 50.825 77.7269 50.8567 77.7593 50.92C77.7916 50.9517 77.8563 50.9833 77.8886 50.9833H82.2213C82.3183 50.9833 82.3829 50.92 82.3829 50.8567L86.3923 36.575C86.8449 34.9917 87.2976 33.915 87.7826 33.3767C88.2676 32.8383 89.0113 32.5533 89.9489 32.5533C90.7573 32.5533 91.2099 32.8067 91.3393 33.2817C91.5009 33.82 91.3393 34.8967 90.8866 36.48L86.8773 50.7617C86.8773 50.825 86.8773 50.8567 86.9096 50.92C86.9419 50.9517 87.0066 50.9833 87.0389 50.9833H91.2423C91.3393 50.9833 91.4039 50.92 91.4039 50.8567L96.2539 33.5667C96.7713 31.9517 96.6743 30.7167 96.0276 29.8617V29.8617Z" fill="#726A6D"/>
<path d="M113.908 28.6583C113.876 28.6267 113.811 28.595 113.779 28.595H109.608C109.511 28.595 109.446 28.6583 109.446 28.7217L108.929 30.6217C108.314 29.0383 107.183 28.2467 105.566 28.2467C103.626 28.2467 101.945 29.165 100.554 30.97C99.164 32.7433 97.9353 35.5617 96.9007 39.33C95.8013 43.2883 95.4133 46.2333 95.769 48.1017C96.157 50.0333 97.321 51.015 99.2933 51.015C100.296 51.015 101.201 50.7933 101.945 50.3183C102.527 49.9383 103.206 49.3367 103.917 48.4817L103.367 50.445C103.367 50.5083 103.367 50.54 103.4 50.6033C103.432 50.635 103.497 50.6667 103.529 50.6667H107.7C107.797 50.6667 107.862 50.6033 107.862 50.54L113.94 28.8167C113.973 28.785 113.94 28.7217 113.908 28.6583V28.6583ZM106.504 39.5833C105.792 42.18 105.016 44.1117 104.273 45.3467C103.561 46.455 102.753 47.025 101.88 47.025C100.975 47.025 100.457 46.5183 100.393 45.4733C100.328 44.365 100.684 42.37 101.46 39.5517C102.236 36.7333 102.979 34.8017 103.691 33.7883C104.402 32.7433 105.21 32.205 106.148 32.205C106.989 32.205 107.441 32.7433 107.506 33.82C107.571 35.055 107.247 36.9867 106.504 39.5833V39.5833Z" fill="#726A6D"/>
<path d="M120.536 29.0067C120.504 28.975 120.439 28.9433 120.407 28.9433H116.204C116.107 28.9433 116.042 29.0067 116.042 29.07L109.963 50.7617C109.963 50.825 109.963 50.8567 109.996 50.92C110.028 50.9517 110.093 50.9833 110.125 50.9833H114.328C114.425 50.9833 114.49 50.92 114.49 50.8567L120.569 29.165C120.601 29.1017 120.569 29.0383 120.536 29.0067Z" fill="#726A6D"/>
<path d="M119.178 25.4917C120.019 25.4917 120.795 25.2067 121.539 24.6683C122.282 24.13 122.767 23.4333 122.961 22.6417C123.188 21.85 123.058 21.1533 122.638 20.5833C122.185 20.0133 121.571 19.7283 120.73 19.7283C119.922 19.7283 119.146 20.0133 118.37 20.5517C117.626 21.09 117.174 21.755 116.947 22.515C116.721 23.3383 116.818 24.0667 117.238 24.605C117.691 25.2067 118.338 25.4917 119.178 25.4917V25.4917Z" fill="#726A6D"/>
<path d="M141.812 18.335C141.779 18.3033 141.715 18.2717 141.682 18.2717H137.091C136.994 18.2717 136.929 18.335 136.929 18.3983L133.534 30.4633C133.049 32.2367 132.597 34.1683 132.209 36.195C131.982 37.3983 131.756 38.665 131.53 40.0583C131.562 37.0183 131.465 34.105 131.239 31.35L130.333 18.43C130.333 18.335 130.236 18.2717 130.139 18.2717H125.904C125.807 18.2717 125.742 18.335 125.742 18.3983L116.689 50.7617C116.689 50.825 116.689 50.8567 116.721 50.92C116.753 50.9517 116.818 50.9833 116.85 50.9833H121.345C121.442 50.9833 121.506 50.92 121.506 50.8567L125.225 36.7333C125.354 36.3217 125.451 35.9733 125.516 35.625C125.613 35.3083 125.677 35.0233 125.71 34.8017L126.583 30.78L127.035 28.6267C127.003 29.7983 126.971 30.9383 126.971 32.0467C127.003 33.4717 127.035 34.865 127.132 36.2267L128.167 50.7933C128.167 50.8883 128.264 50.9517 128.361 50.9517H132.629C132.726 50.9517 132.791 50.8883 132.791 50.825L141.844 18.4617C141.844 18.43 141.844 18.3667 141.812 18.335V18.335Z" fill="#726A6D"/>
<path d="M150.93 43.0667C150.897 43.035 150.833 43.0033 150.8 43.0033H146.888C146.791 43.0033 146.726 43.0667 146.726 43.13C145.983 45.8533 144.754 47.215 143.105 47.215C142.62 47.215 142.264 47.0567 142.006 46.74C141.294 45.885 141.391 43.795 142.297 40.5967H151.738C151.835 40.5967 151.9 40.5333 151.9 40.47L152.029 39.9633C153.419 34.9917 153.387 31.54 151.964 29.7667C151.156 28.7533 149.927 28.2467 148.246 28.2467C145.853 28.2467 143.816 29.1967 142.167 31.065C140.518 32.9333 139.16 35.815 138.061 39.6467C137.511 41.5783 137.188 43.2567 137.059 44.6817C136.929 46.1067 137.026 47.2783 137.35 48.1967C137.673 49.1467 138.223 49.8433 139.031 50.2867C139.807 50.73 140.809 50.9517 142.07 50.9517C146.209 50.9517 149.184 48.3233 150.962 43.1933C150.962 43.1617 150.962 43.0983 150.93 43.0667V43.0667ZM147.179 32.015C147.955 32.015 148.375 32.3633 148.505 33.0917C148.666 33.7567 148.505 35.2133 148.084 37.3667H143.17C143.946 35.245 144.592 33.82 145.142 33.155C145.692 32.3633 146.371 32.015 147.179 32.015V32.015Z" fill="#726A6D"/>
<path d="M163.475 41.0083C163.313 40.5333 163.022 40.0583 162.634 39.52C162.246 39.0133 161.729 38.4433 161.115 37.8733C159.627 36.5117 158.981 35.3083 159.272 34.3583C159.369 34.0417 159.498 33.7567 159.724 33.4717C159.951 33.1867 160.177 32.9333 160.468 32.7433C160.759 32.5533 161.082 32.3633 161.406 32.2683C161.729 32.1417 162.085 32.0783 162.44 32.0783C163.507 32.0783 164.445 32.4267 165.221 33.1233C165.253 33.155 165.318 33.1867 165.383 33.155C165.447 33.1233 165.48 33.0917 165.512 33.0283L166.547 29.26C166.579 29.1967 166.547 29.1017 166.482 29.07C165.415 28.4367 164.219 28.0883 162.893 28.0883C161.05 28.0883 159.336 28.6583 157.881 29.7983C156.426 30.9383 155.424 32.395 154.939 34.2C154.551 35.53 154.551 36.67 154.939 37.6517C155.327 38.57 156.232 39.71 157.655 41.0083C158.043 41.3883 158.399 41.7367 158.625 42.0533C158.884 42.3383 159.045 42.6233 159.142 42.845C159.336 43.2883 159.336 43.8583 159.175 44.46C158.69 46.2017 157.558 47.025 155.715 47.025C154.68 47.025 153.678 46.6133 152.773 45.7583C152.74 45.7267 152.676 45.695 152.611 45.7267C152.546 45.7583 152.514 45.79 152.482 45.8533L151.382 49.7167C151.35 49.78 151.382 49.875 151.447 49.9067C152.514 50.6033 153.71 50.9517 154.939 50.9517C156.944 50.9517 158.722 50.35 160.242 49.1783C161.761 47.975 162.828 46.3917 163.378 44.4283C163.766 43.0667 163.798 41.9267 163.475 41.0083V41.0083Z" fill="#726A6D"/>
<path d="M173.013 25.4917C173.854 25.4917 174.63 25.2067 175.374 24.6683C176.117 24.13 176.602 23.4333 176.796 22.6417C177.023 21.85 176.893 21.1533 176.473 20.5833C176.02 20.0133 175.406 19.7283 174.565 19.7283C173.757 19.7283 172.981 20.0133 172.205 20.5517C171.461 21.09 171.009 21.755 170.782 22.515C170.556 23.3383 170.653 24.0667 171.073 24.605C171.526 25.2067 172.173 25.4917 173.013 25.4917V25.4917Z" fill="#726A6D"/>
<path d="M174.371 29.0067C174.339 28.975 174.274 28.9433 174.242 28.9433H170.039C169.942 28.9433 169.877 29.0067 169.877 29.07L163.798 50.7617C163.798 50.825 163.798 50.8567 163.831 50.92C163.863 50.9517 163.928 50.9833 163.96 50.9833H168.163C168.26 50.9833 168.325 50.92 168.325 50.8567L174.404 29.165C174.404 29.1017 174.404 29.0383 174.371 29.0067V29.0067Z" fill="#726A6D"/>
<path d="M190.764 28.6583C190.732 28.6267 190.667 28.595 190.635 28.595H186.464C186.367 28.595 186.302 28.6583 186.302 28.7217L185.785 30.6217C185.171 29.0383 184.039 28.2467 182.422 28.2467C180.482 28.2467 178.801 29.165 177.411 30.97C176.02 32.7433 174.792 35.5617 173.757 39.33C172.658 43.2883 172.27 46.2333 172.625 48.1017C173.013 50.0333 174.177 51.015 176.15 51.015C177.152 51.015 178.057 50.7933 178.801 50.3183C179.383 49.9383 180.062 49.3367 180.773 48.4817L180.224 50.445C180.224 50.5083 180.224 50.54 180.256 50.6033C180.288 50.635 180.353 50.6667 180.385 50.6667H184.556C184.653 50.6667 184.718 50.6033 184.718 50.54L190.797 28.8167C190.829 28.785 190.797 28.7217 190.764 28.6583V28.6583ZM183.36 39.5833C182.649 42.18 181.873 44.1117 181.129 45.3467C180.418 46.455 179.609 47.025 178.736 47.025C177.831 47.025 177.314 46.5183 177.249 45.4733C177.184 44.365 177.54 42.37 178.316 39.5517C179.092 36.7333 179.836 34.8017 180.547 33.7883C181.258 32.7433 182.067 32.205 183.004 32.205C183.845 32.205 184.298 32.7433 184.362 33.82C184.427 35.055 184.104 36.9867 183.36 39.5833V39.5833Z" fill="#726A6D"/>
<path fill-rule="evenodd" clip-rule="evenodd" d="M28.548 22.895L4.84766 33.6933L28.548 50.9833V22.895Z" fill="#726A6D"/>
<path fill-rule="evenodd" clip-rule="evenodd" d="M41.1903 5.795L28.548 11.5583V50.9833L41.1903 5.795Z" fill="#40444E"/>
</g>
<defs>
<filter id="filter0_d_30_520" x="-3" y="0" width="202" height="65" filterUnits="userSpaceOnUse" color-interpolation-filters="sRGB">
<feFlood flood-opacity="0" result="BackgroundImageFix"/>
<feColorMatrix in="SourceAlpha" type="matrix" values="0 0 0 0 0 0 0 0 0 0 0 0 0 0 0 0 0 0 127 0" result="hardAlpha"/>
<feOffset dy="4"/>
<feGaussianBlur stdDeviation="2"/>
<feComposite in2="hardAlpha" operator="out"/>
<feColorMatrix type="matrix" values="0 0 0 0 0 0 0 0 0 0 0 0 0 0 0 0 0 0 0.25 0"/>
<feBlend mode="normal" in2="BackgroundImageFix" result="effect1_dropShadow_30_520"/>
<feBlend mode="normal" in="SourceGraphic" in2="effect1_dropShadow_30_520" result="shape"/>
</filter>
</defs>
</svg>
