<svg width="127" height="39" viewBox="0 0 127 39" fill="none" xmlns="http://www.w3.org/2000/svg">
<g filter="url(#filter0_d_29_521)">
<path d="M26.9391 13.228H16.9309C16.6727 13.228 16.4632 13.4293 16.4632 13.677V18.3724C16.4632 18.6201 16.6727 18.8216 16.9309 18.8216H20.8352V24.6552C20.8352 24.6552 19.9585 24.942 17.5348 24.942C14.6754 24.942 10.6808 23.9394 10.6808 15.511C10.6808 7.08075 14.8403 5.97158 18.7453 5.97158C22.1255 5.97158 23.5817 6.54271 24.5083 6.8178C24.7994 6.90347 25.0687 6.62528 25.0687 6.37732L26.1852 1.84069C26.1852 1.7248 26.1443 1.58511 26.0064 1.49016C25.6302 1.23268 23.3345 0 17.5348 0C10.8534 0 4 2.7276 4 15.8397C4 28.9522 11.8467 30.9062 18.4588 30.9062C23.9336 30.9062 27.2548 28.6612 27.2548 28.6612C27.3917 28.5886 27.4066 28.4051 27.4066 28.3209V13.677C27.4066 13.4293 27.1973 13.228 26.9391 13.228ZM78.4902 1.64127C78.4902 1.3914 78.2838 1.18984 78.0257 1.18984H72.3904C72.133 1.18984 71.9237 1.3914 71.9237 1.64127C71.9237 1.64246 71.9251 12.0912 71.9251 12.0912H63.1413V1.64127C63.1413 1.3914 62.9339 1.18984 62.6763 1.18984H57.0412C56.7848 1.18984 56.5757 1.3914 56.5757 1.64127V29.9364C56.5757 30.1861 56.7848 30.3893 57.0412 30.3893H62.6763C62.9339 30.3893 63.1413 30.1861 63.1413 29.9364V17.8336H71.9251C71.9251 17.8336 71.9098 29.9355 71.9098 29.9364C71.9098 30.1861 72.1188 30.3893 72.3765 30.3893H78.0252C78.2833 30.3893 78.4897 30.1861 78.4902 29.9364V1.64127ZM37.555 5.42425C37.555 3.4772 35.9281 1.90375 33.9211 1.90375C31.916 1.90375 30.2879 3.4772 30.2879 5.42425C30.2879 7.36917 31.916 8.9469 33.9211 8.9469C35.9281 8.9469 37.555 7.36917 37.555 5.42425ZM37.1078 23.9825V10.9213C37.1078 10.6734 36.8993 10.4706 36.6416 10.4706H31.0242C30.7665 10.4706 30.5359 10.7257 30.5359 10.9737V29.6863C30.5359 30.2363 30.893 30.3998 31.3553 30.3998H36.4164C36.9717 30.3998 37.1078 30.1382 37.1078 29.6775V23.9825ZM100.028 10.4706H94.4357C94.1793 10.4706 93.9705 10.6734 93.9705 10.923V24.797C93.9705 24.797 92.55 25.7944 90.5335 25.7944C88.5173 25.7944 87.9821 24.9165 87.9821 23.022V10.923C87.9821 10.6734 87.7738 10.4706 87.5171 10.4706H81.8416C81.5854 10.4706 81.3756 10.6734 81.3756 10.923V23.9382C81.3756 29.5652 84.644 30.9419 89.1402 30.9419C92.8287 30.9419 95.8027 28.9865 95.8027 28.9865C95.8027 28.9865 95.9443 30.0169 96.0083 30.1392C96.0725 30.261 96.2394 30.3841 96.4197 30.3841L100.03 30.3688C100.287 30.3688 100.496 30.1656 100.496 29.9172L100.495 10.923C100.495 10.6734 100.286 10.4706 100.028 10.4706ZM112.912 25.8051C110.973 25.7484 109.657 24.9039 109.657 24.9039V15.9434C109.657 15.9434 110.955 15.18 112.547 15.0434C114.561 14.8704 116.501 15.4542 116.501 20.0636C116.501 24.9243 115.626 25.8836 112.912 25.8051ZM115.118 9.86284C111.942 9.86284 109.781 11.2226 109.781 11.2226V1.64127C109.781 1.3914 109.573 1.18984 109.316 1.18984H103.665C103.408 1.18984 103.2 1.3914 103.2 1.64127V29.9364C103.2 30.1861 103.408 30.3893 103.666 30.3893H107.587C107.763 30.3893 107.897 30.302 107.996 30.1489C108.093 29.9969 108.234 28.8444 108.234 28.8444C108.234 28.8444 110.545 30.9457 114.919 30.9457C120.055 30.9457 123 28.446 123 19.7243C123 11.0025 118.296 9.86284 115.118 9.86284ZM53.3267 10.4221H49.0996C49.0996 10.4221 49.0931 5.06468 49.0931 5.06349C49.0931 4.86074 48.9843 4.75937 48.74 4.75937H42.9795C42.7555 4.75937 42.6352 4.85384 42.6352 5.0604V10.5979C42.6352 10.5979 39.7485 11.2666 39.5534 11.3206C39.3589 11.3747 39.2158 11.5467 39.2158 11.7518V15.2316C39.2158 15.482 39.4242 15.6838 39.6818 15.6838H42.6352V24.055C42.6352 30.2729 47.1806 30.8838 50.2478 30.8838C51.6493 30.8838 53.3257 30.4519 53.6025 30.3538C53.7699 30.2948 53.8671 30.1285 53.8671 29.9481L53.8718 26.1201C53.8718 25.8705 53.6521 25.6685 53.4046 25.6685C53.1583 25.6685 52.5282 25.7646 51.8794 25.7646C49.8031 25.7646 49.0996 24.8382 49.0996 23.6391C49.0996 22.4409 49.0993 15.6838 49.0993 15.6838H53.3267C53.5844 15.6838 53.793 15.482 53.793 15.2316V10.873C53.793 10.6234 53.5844 10.4221 53.3267 10.4221Z" fill="#726A6D"/>
</g>
<defs>
<filter id="filter0_d_29_521" x="0" y="0" width="127" height="39" filterUnits="userSpaceOnUse" color-interpolation-filters="sRGB">
<feFlood flood-opacity="0" result="BackgroundImageFix"/>
<feColorMatrix in="SourceAlpha" type="matrix" values="0 0 0 0 0 0 0 0 0 0 0 0 0 0 0 0 0 0 127 0" result="hardAlpha"/>
<feOffset dy="4"/>
<feGaussianBlur stdDeviation="2"/>
<feComposite in2="hardAlpha" operator="out"/>
<feColorMatrix type="matrix" values="0 0 0 0 0 0 0 0 0 0 0 0 0 0 0 0 0 0 0.25 0"/>
<feBlend mode="normal" in2="BackgroundImageFix" result="effect1_dropShadow_29_521"/>
<feBlend mode="normal" in="SourceGraphic" in2="effect1_dropShadow_29_521" result="shape"/>
</filter>
</defs>
</svg>
