<svg width="149" height="97" viewBox="0 0 149 97" fill="none" xmlns="http://www.w3.org/2000/svg">
<g filter="url(#filter0_d_6_570)">
<path d="M7.68109 33.8792V32.6894H17.9003V33.8681H16.0198C16.0198 33.8681 15.2704 33.8749 15.2704 34.3557V46.9211H21.5813C21.5813 46.9211 22.6465 47.3138 22.9301 43.7096H25.5561V48.1225H7.70431V47.06H9.65646C9.65646 47.06 10.4904 46.898 10.4904 46.5168V34.3058C10.4904 34.3058 10.4015 33.913 9.47878 33.913L7.68109 33.8792Z" fill="#726A6D"/>
<path d="M27.0475 38.8343V37.9103L31.9097 36.7088H33.791V46.6673C33.791 46.6673 33.8265 47.1985 34.891 47.1985H36.2041V48.1458H27.0121V47.1523H28.3959C28.3959 47.1523 29.3187 47.0828 29.3899 46.7131V38.8343H27.0475Z" fill="#726A6D"/>
<path d="M46.5322 48.1458H37.8368V47.1523H39.1856C39.1856 47.1523 40.1078 47.0832 40.1433 46.6673V38.7652H37.73V37.7949L42.6989 36.6856H44.4734V38.0949C44.4734 38.0949 48.3422 36.7319 50.6138 36.7319C50.6138 36.7319 55.1566 36.5007 55.1921 39.7355V46.5746C55.1921 46.5746 55.2989 47.1291 56.3277 47.1291H57.712V48.1457H49.052V47.0831H50.2587C50.2587 47.0831 50.8975 47.06 51.0392 46.6441V40.6828C51.0392 40.6828 50.8265 38.6263 47.7386 38.6957C47.7386 38.6957 45.6092 38.8804 44.5088 39.1347V46.6672C44.5088 46.6672 44.651 47.06 45.3966 47.1058H46.5677L46.5322 48.1458Z" fill="#726A6D"/>
<path d="M61.1548 38.742H58.7768V37.8175L63.6038 36.7088H65.5555V44.2413C65.5555 44.2413 65.4139 46.6209 68.8566 46.4362C68.8566 46.4362 71.5894 46.2515 71.9443 46.0663V38.7652H69.6023V37.8408L74.3577 36.6856H76.31V46.5978C76.31 46.5978 76.2745 47.0601 77.1973 47.1059H78.5813V48.192H71.9445V46.9444C71.9445 46.9444 68.5729 48.3999 65.8401 48.3769C65.8401 48.3769 61.2968 48.5386 61.1551 45.1653V38.742H61.1548Z" fill="#726A6D"/>
<path d="M79.7169 37.9334V36.8704H88.1997V37.9103C88.1997 37.9103 86.3187 37.8639 86.8507 38.4646L89.619 41.0755L92.3518 38.4646C92.3518 38.4646 93.0264 37.9334 90.8612 37.9793V36.9168H97.3562V37.9334C97.3562 37.9334 95.7592 37.9796 95.0851 38.4415L90.897 42.0922L96.1141 46.9674C96.1141 46.9674 96.6819 47.1984 97.9951 47.2215V48.1688H89.6548V47.3138C89.6548 47.3138 91.5358 47.3138 90.9323 46.6441L87.9861 43.7789L84.8985 46.6903C84.8985 46.6903 84.118 47.1753 86.46 47.1523V48.1224H79.6458V47.1753C79.6458 47.1753 81.2429 47.2448 81.9175 46.6672L86.5313 42.7621L81.9885 38.4414C81.9885 38.4415 81.7753 37.9565 79.7169 37.9334Z" fill="#726A6D"/>
<path d="M97.6812 36.2925H97.3096V35.6954H99.1595V36.2925H98.8033V35.9372H98.4243V36.7815H98.7879V37.0133H97.6959V36.7862H98.0446V35.9372H97.6737L97.6812 36.2925Z" fill="#726A6D"/>
<path d="M99.349 37.018V36.7815H99.531V35.9372H99.349V35.6806H99.8947V35.9324H100.099V36.1891H100.274V36.2925H100.464V36.1743H100.66V35.9473H100.835V35.6857H101.388V35.9324H101.206V36.7862H101.388V37.023H100.471V36.7815H100.842V36.4162H100.653V36.5296H100.471V36.6629H100.274V36.5395H100.099V36.411H99.8947V36.7667H100.274V37.0205L99.349 37.018Z" fill="#726A6D"/>
<path d="M6.20896 57.6811C6.20896 57.6811 6.15557 55.5324 11.3826 54.7441C11.3826 54.7441 29.2696 51.313 91.7143 50.2732C91.7143 50.2732 102.894 50.5853 94.1098 52.5608C94.1098 52.5608 64.2447 55.5756 57.6968 55.9916C57.6968 55.9916 23.9989 58.7987 12.8197 63.3734C12.8197 63.3734 11.3003 64.1236 10.3472 64.7705C10.3472 64.7705 9.42972 65.1672 8.66821 64.5434C8.66821 64.5434 6.16551 62.9409 6.20896 57.6811Z" fill="#726A6D"/>
<path d="M126.842 51.1805C126.842 53.5778 122.82 55.5213 117.858 55.5213C112.896 55.5213 108.874 53.5778 108.874 51.1805C108.874 48.7832 112.896 46.8398 117.858 46.8398C122.82 46.8398 126.842 48.7832 126.842 51.1805Z" fill="url(#paint0_linear_6_570)"/>
<path d="M125.006 65.4044C125.006 65.4044 120.487 65.1945 119.627 65.0543C119.627 65.0543 118.551 65.0543 117.583 65.1945C117.583 65.1945 113.603 65.6147 111.559 65.4044L100.694 55.9504C100.694 55.9504 98.9736 53.7096 103.491 48.4571C103.491 48.4571 107.902 44.0451 108.547 43.6253C109.193 43.2051 110.699 41.1042 110.591 38.5827C110.591 38.5827 107.579 29.619 118.551 29.3392C118.551 29.3392 126.619 28.3584 128.018 34.311C128.018 34.311 128.125 39.1431 128.448 40.0537C128.448 40.0537 127.48 40.8939 132.643 44.8858C132.643 44.8858 142.54 52.099 136.731 56.9308L125.006 65.4044Z" fill="black"/>
<path d="M112.387 41.3645C112.387 41.3645 112.014 44.5529 109.033 48.3654C109.033 48.3654 106.69 51.2768 106.318 54.3957C106.318 54.3957 103.017 51.9697 107.649 47.1523C107.649 47.1523 107.978 46.8749 107.751 46.8109C107.751 46.8109 107.598 46.7072 107.303 47.0425C107.303 47.0425 102.467 51.6578 104.952 54.4768C104.952 54.4768 105.52 55.1005 106.726 55.7702C106.726 55.7702 109.566 56.9949 110.382 57.5499C111.198 58.1042 113.718 59.7217 112.227 60.6226C112.227 60.6226 111.659 61.0152 110.701 60.9462C110.701 60.9462 112.156 63.8345 118.97 63.6724C118.97 63.6724 123.123 63.3722 125.998 61.7549L137.036 56.2559L136.752 55.8631C136.752 55.8631 138.207 54.3842 133.274 53.1368C133.274 53.1368 135.048 49.9942 129.44 46.2283C129.44 46.2283 128.766 45.9276 129.05 46.3668C129.05 46.3668 134.161 49.3242 132.031 52.8826L130.931 52.8363C130.931 52.8363 129.973 49.9712 127.701 47.3139C127.701 47.3139 124.099 42.3698 123.992 40.4286C123.887 38.4877 112.387 41.3645 112.387 41.3645Z" fill="url(#paint1_linear_6_570)"/>
<path opacity="0.5" d="M123.219 43.429C123.219 44.6021 120.941 45.5535 118.131 45.5535C115.321 45.5535 113.043 44.6021 113.043 43.429C113.043 42.2553 115.321 41.3042 118.131 41.3042C120.941 41.3042 123.219 42.2553 123.219 43.429Z" fill="url(#paint2_linear_6_570)"/>
<path d="M111.532 40.2434C111.532 40.2434 115.372 43.4477 120.678 41.016C120.678 41.016 121.341 40.4931 123.366 40.1523" stroke="#F7A81C" stroke-width="0.6774" stroke-miterlimit="10"/>
<path opacity="0.5" d="M125.248 32.4554C125.485 34.207 122.711 35.7976 119.051 36.0079C115.391 36.2183 112.231 34.9692 111.993 33.2178C111.756 31.4661 114.53 29.876 118.19 29.6656C121.851 29.4548 125.011 30.7043 125.248 32.4554Z" fill="url(#paint3_linear_6_570)"/>
<path d="M115.984 36.7347C115.984 37.9118 115.042 38.8662 113.879 38.8662C112.716 38.8662 111.773 37.9118 111.773 36.7347C111.773 35.5573 112.716 34.6032 113.879 34.6032C115.042 34.6032 115.984 35.5573 115.984 36.7347Z" fill="#CAC7C6"/>
<path d="M123.997 36.7985C123.997 38.166 122.683 39.275 121.063 39.275C119.442 39.275 118.129 38.166 118.129 36.7985C118.129 35.431 119.442 34.3226 121.063 34.3226C122.683 34.3226 123.997 35.431 123.997 36.7985Z" fill="#CAC7C6"/>
<path d="M114.629 37.2453C114.629 37.8464 114.231 38.3338 113.74 38.3338C113.25 38.3338 112.852 37.8463 112.852 37.2453C112.852 36.6446 113.25 36.1572 113.74 36.1572C114.231 36.1572 114.629 36.6446 114.629 37.2453Z" fill="black"/>
<path opacity="0.5" d="M114.358 36.8142C114.358 37.0904 114.095 37.314 113.771 37.314C113.446 37.314 113.184 37.0904 113.184 36.8142C113.184 36.538 113.446 36.3141 113.771 36.3141C114.095 36.314 114.358 36.5379 114.358 36.8142Z" fill="url(#paint4_linear_6_570)"/>
<path d="M122.312 37.2943C122.312 38.1608 121.664 38.863 120.866 38.863C120.066 38.863 119.419 38.1608 119.419 37.2943C119.419 36.4281 120.066 35.7256 120.866 35.7256C121.664 35.7256 122.312 36.4281 122.312 37.2943Z" fill="black"/>
<path opacity="0.5" d="M121.871 36.6724C121.871 37.0709 121.443 37.3933 120.914 37.3933C120.386 37.3933 119.958 37.071 119.958 36.6724C119.958 36.2746 120.386 35.952 120.914 35.952C121.442 35.9519 121.871 36.2746 121.871 36.6724Z" fill="url(#paint5_linear_6_570)"/>
<path d="M112.593 41.2879C112.593 41.2879 110.586 40.6345 111.042 39.7436C111.042 39.7436 111.072 39.2686 112.046 38.8131C113.019 38.3576 112.897 38.4172 113.019 38.3576C113.14 38.2982 115.3 37.2887 115.969 37.1697C116.638 37.0509 118.097 37.0312 119.04 37.4072C119.983 37.7836 122.233 38.3576 122.628 38.4172C123.024 38.4766 124.119 38.8725 124.27 39.2881C124.422 39.7041 124.118 40.2979 123.632 40.6541C123.146 41.0106 122.294 41.3864 121.29 41.6638C120.287 41.9409 119.922 42.139 119.283 42.3765C118.645 42.6143 116.881 43.0893 115.36 42.5943C113.84 42.0994 114.053 41.9013 113.566 41.7234C113.08 41.5449 112.593 41.2879 112.593 41.2879Z" fill="#F1883B"/>
<path d="M112.914 41.2532C112.914 41.2532 110.993 40.6281 111.43 39.775C111.43 39.775 111.459 39.3203 112.39 38.8845C113.321 38.4486 113.206 38.5055 113.321 38.4486C113.438 38.392 115.505 37.4256 116.145 37.3118C116.785 37.198 118.183 37.1792 119.085 37.5394C119.987 37.8995 122.142 38.4486 122.519 38.5055C122.898 38.5624 123.946 38.9413 124.091 39.3392C124.237 39.7371 123.946 40.3059 123.48 40.6469C123.015 40.9881 122.199 41.3482 121.239 41.6132C120.278 41.8786 119.929 42.0678 119.317 42.2953C118.707 42.523 117.018 42.9776 115.563 42.5038C114.108 42.0299 114.312 41.8407 113.846 41.6699C113.38 41.4995 112.914 41.2532 112.914 41.2532Z" fill="#FBB91D"/>
<path opacity="0.1" d="M113.604 38.7352C113.604 38.7352 115.035 37.3038 117.026 37.2807C117.026 37.2807 120.306 37.7353 120.865 38.6673C120.865 38.6673 120.167 39.9398 117.06 39.9398C117.06 39.9398 114.128 40.0536 113.604 38.7352Z" fill="url(#paint6_linear_6_570)"/>
<path opacity="0.3" d="M102.822 55.7013C102.822 55.7013 100.267 52.8825 103.887 48.7696C103.887 48.7696 105.236 47.0136 107.862 44.9804C107.862 44.9804 109.353 44.01 108.359 45.1189C108.359 45.1189 105.377 48.2614 104.952 48.9544C104.525 49.6477 102.183 51.8196 105.306 56.0246C108.429 60.2301 102.822 55.7013 102.822 55.7013Z" fill="url(#paint7_linear_6_570)"/>
<path d="M113.128 63.7234C113.175 62.7111 111.622 61.5881 109.974 60.3067C108.327 59.0254 107.211 57.155 107.211 57.155C105.679 54.9281 103.444 54.9489 102.892 54.9917C101.345 54.9852 100.102 55.9612 100.102 55.9612C99.3028 56.7129 98.5893 57.11 98.1263 57.3119C98.1024 57.3136 98.0791 57.3155 98.055 57.3174C93.333 57.6624 94.8638 60.8528 94.8638 60.8528C95.6455 61.9286 94.3641 63.132 94.3641 63.132C93.4175 65.1298 96.0319 65.2263 96.5151 65.2559C96.997 65.2858 99.136 65.4423 100.681 65.5369C102.225 65.6316 104.844 66.5153 104.844 66.5153C107.435 67.1942 109.863 66.823 109.863 66.823C113.542 65.7412 113.128 63.7234 113.128 63.7234Z" fill="#BE7247"/>
<path d="M112.819 63.6105C112.871 62.6398 111.374 61.5669 109.787 60.343C108.2 59.1191 107.132 57.329 107.132 57.329C106.132 55.8784 104.811 55.4275 103.9 55.3008C102.936 55.0993 101.422 55.3173 100.573 55.9504C99.658 56.6326 99.4262 56.769 98.7198 57.2284C98.4953 57.3745 98.3276 57.4631 98.2018 57.5163C93.7039 57.8839 95.1507 60.9099 95.1507 60.9099C95.9 61.9394 94.6511 63.0965 94.6511 63.0965C93.7209 65.0153 96.2525 65.1002 96.7198 65.1275C97.187 65.1546 99.257 65.2983 100.752 65.3849C102.247 65.4711 104.778 66.3109 104.778 66.3109C107.282 66.9547 109.636 66.5916 109.636 66.5916C113.206 65.544 112.819 63.6105 112.819 63.6105Z" fill="#F08128"/>
<path d="M112.502 63.516C112.547 62.5727 111.099 61.5266 109.562 60.3335C108.026 59.1408 106.986 57.3985 106.986 57.3985C105.603 55.3867 103.599 55.3454 103.01 55.3808C102.838 55.3875 102.661 55.4036 102.483 55.4282C101.763 55.5288 101.034 55.7764 100.529 56.1712C99.5949 56.9012 99.3373 57.0644 98.6434 57.5373C98.5777 57.5431 98.511 57.5486 98.4435 57.5533C94.0368 57.8767 95.4631 60.8487 95.4631 60.8487C96.1907 61.8508 94.994 62.9723 94.994 62.9723C94.1085 64.8344 96.5483 64.9234 96.9983 64.9506C97.449 64.9781 99.4447 65.123 100.886 65.2104C102.326 65.2979 104.77 66.1205 104.77 66.1205C107.186 66.7519 109.452 66.405 109.452 66.405C112.886 65.3956 112.502 63.516 112.502 63.516Z" fill="#FFD400"/>
<path opacity="0.6" d="M107.855 60.0142C107.855 60.0142 105.643 55.1809 102.813 56.2166C99.9836 57.2528 99.2414 58.111 99.2414 58.111C99.2414 58.111 96.092 59.2862 101.971 62.085L107.855 60.0142Z" fill="url(#paint8_linear_6_570)"/>
<path opacity="0.2" d="M134.698 55.2332C134.698 55.2332 138.145 51.2503 131.056 44.7083C131.056 44.7083 129.211 42.4327 131.153 43.9498C131.153 43.9498 139.844 50.1759 136.931 55.8336L134.698 55.2332Z" fill="url(#paint9_linear_6_570)"/>
<path d="M129.656 55.032C129.656 55.032 126.926 55.2864 126.709 58.084C126.709 58.084 126.709 60.0906 125.885 61.6731C125.062 63.2562 124.238 64.6692 124.845 65.6016C124.845 65.6016 125.582 67.5799 129.612 67.7211C129.612 67.7211 132.083 67.4953 134.12 66.2515C134.12 66.2515 136.07 64.8105 137.457 64.3583C138.844 63.906 140.751 63.2562 141.184 63.1144C141.617 62.9732 144.001 62.2671 142.007 60.6277C142.007 60.6277 140.144 59.8079 140.274 58.6212C140.274 58.6212 139.927 55.2864 135.333 56.0775C130.739 56.8689 129.656 55.032 129.656 55.032Z" fill="#BE7247"/>
<path d="M129.738 55.3061C129.738 55.3061 127.089 55.5496 126.879 58.2276C126.879 58.2276 126.879 60.1483 126.08 61.6631C125.281 63.1783 124.482 64.5305 125.07 65.4234C125.07 65.4234 125.785 67.3171 129.695 67.4519C129.695 67.4519 132.092 67.2356 134.068 66.0454C134.068 66.0454 135.96 64.6659 137.306 64.2333C138.651 63.8002 140.501 63.1784 140.921 63.043C141.341 62.9077 143.654 62.2316 141.72 60.6623C141.72 60.6623 139.912 59.8777 140.039 58.7418C140.039 58.7418 139.702 55.5496 135.245 56.3073C130.788 57.0645 129.738 55.3061 129.738 55.3061Z" fill="#F08128"/>
<path d="M129.803 55.4152C129.803 55.4152 127.255 55.6518 127.053 58.258C127.053 58.258 127.053 60.1272 126.284 61.6014C125.516 63.0757 124.747 64.3918 125.314 65.2607C125.314 65.2607 126.001 67.1032 129.763 67.2349C129.763 67.2349 132.069 67.0242 133.97 65.8658C133.97 65.8658 135.79 64.5235 137.084 64.1025C138.379 63.6808 140.159 63.0758 140.563 62.9441C140.967 62.8124 143.192 62.1542 141.331 60.6274C141.331 60.6274 139.592 59.8643 139.713 58.7582C139.713 58.7582 139.39 55.652 135.103 56.3893C130.815 57.126 129.803 55.4152 129.803 55.4152Z" fill="#FFD400"/>
<path opacity="0.6" d="M127.698 60.901C127.698 60.901 127.072 55.8742 130.286 56.1732C133.499 56.4721 134.668 57.0968 134.668 57.0968C134.668 57.0968 138.258 57.45 134.334 61.4443L127.698 60.901Z" fill="url(#paint10_linear_6_570)"/>
<path d="M129.257 55.088C129.257 55.088 129.455 53.2997 132.004 53.7715C132.004 53.7715 134.554 54.1578 135.894 55.088C135.894 55.088 137.059 55.9748 135.454 56.7902C135.454 56.7902 134.421 57.3626 133.608 57.5631C133.608 57.5631 131.411 58.2353 130.246 57.3341C130.246 57.334 129.235 56.5471 129.257 55.088Z" fill="black"/>
<path d="M129.882 55.0748C129.882 55.0748 130.015 53.8712 131.73 54.189C131.73 54.189 133.446 54.4493 134.348 55.0748C134.348 55.0748 135.131 55.6718 134.052 56.2206C134.052 56.2206 133.357 56.6053 132.81 56.7403C132.81 56.7403 131.331 57.1931 130.547 56.5863C130.547 56.5863 129.867 56.0569 129.882 55.0748Z" fill="url(#paint11_linear_6_570)"/>
<path d="M31.8012 34.988C33.2495 34.988 34.4236 34.2238 34.4236 33.2812C34.4236 32.3385 33.2495 31.5744 31.8012 31.5744C30.3529 31.5744 29.1788 32.3385 29.1788 33.2812C29.1788 34.2238 30.3529 34.988 31.8012 34.988Z" fill="#726A6D"/>
</g>
<defs>
<filter id="filter0_d_6_570" x="2.2084" y="29.2789" width="144.583" height="46.4422" filterUnits="userSpaceOnUse" color-interpolation-filters="sRGB">
<feFlood flood-opacity="0" result="BackgroundImageFix"/>
<feColorMatrix in="SourceAlpha" type="matrix" values="0 0 0 0 0 0 0 0 0 0 0 0 0 0 0 0 0 0 127 0" result="hardAlpha"/>
<feOffset dy="4"/>
<feGaussianBlur stdDeviation="2"/>
<feComposite in2="hardAlpha" operator="out"/>
<feColorMatrix type="matrix" values="0 0 0 0 0 0 0 0 0 0 0 0 0 0 0 0 0 0 0.25 0"/>
<feBlend mode="normal" in2="BackgroundImageFix" result="effect1_dropShadow_6_570"/>
<feBlend mode="normal" in="SourceGraphic" in2="effect1_dropShadow_6_570" result="shape"/>
</filter>
<linearGradient id="paint0_linear_6_570" x1="118.205" y1="45.8989" x2="117.774" y2="61.3829" gradientUnits="userSpaceOnUse">
<stop offset="0.644" stop-color="white"/>
<stop offset="0.6827" stop-color="#CCCCCC"/>
<stop offset="0.7287" stop-color="#979797"/>
<stop offset="0.7754" stop-color="#686868"/>
<stop offset="0.8217" stop-color="#434343"/>
<stop offset="0.8676" stop-color="#262626"/>
<stop offset="0.9129" stop-color="#111111"/>
<stop offset="0.9573" stop-color="#040404"/>
<stop offset="1"/>
</linearGradient>
<linearGradient id="paint1_linear_6_570" x1="120.508" y1="29.5537" x2="120.565" y2="54.9529" gradientUnits="userSpaceOnUse">
<stop/>
<stop offset="0.1086" stop-color="#333333"/>
<stop offset="0.2381" stop-color="#686868"/>
<stop offset="0.3692" stop-color="#979797"/>
<stop offset="0.4993" stop-color="#BCBCBC"/>
<stop offset="0.6281" stop-color="#D9D9D9"/>
<stop offset="0.7553" stop-color="#EEEEEE"/>
<stop offset="0.8801" stop-color="#FBFBFB"/>
<stop offset="1" stop-color="white"/>
</linearGradient>
<linearGradient id="paint2_linear_6_570" x1="118.486" y1="40.0326" x2="118.169" y2="47.1908" gradientUnits="userSpaceOnUse">
<stop offset="0.7701" stop-color="white"/>
<stop offset="0.7951" stop-color="#CCCCCC"/>
<stop offset="0.8248" stop-color="#979797"/>
<stop offset="0.855" stop-color="#686868"/>
<stop offset="0.8849" stop-color="#434343"/>
<stop offset="0.9145" stop-color="#262626"/>
<stop offset="0.9437" stop-color="#111111"/>
<stop offset="0.9724" stop-color="#040404"/>
<stop offset="1"/>
</linearGradient>
<linearGradient id="paint3_linear_6_570" x1="118.149" y1="28.8033" x2="118.625" y2="38.4002" gradientUnits="userSpaceOnUse">
<stop offset="0.1239" stop-color="white"/>
<stop offset="0.1971" stop-color="#D7D7D7"/>
<stop offset="0.4145" stop-color="#656565"/>
<stop offset="0.5644" stop-color="#1C1C1C"/>
<stop offset="0.6335" stop-color="#20201F"/>
<stop offset="0.7277" stop-color="#050505"/>
</linearGradient>
<linearGradient id="paint4_linear_6_570" x1="113.538" y1="35.6087" x2="113.783" y2="38.5962" gradientUnits="userSpaceOnUse">
<stop stop-color="white"/>
<stop offset="0.0427" stop-color="#DCDCDC"/>
<stop offset="0.1123" stop-color="#A9A9A9"/>
<stop offset="0.1853" stop-color="#7C7C7C"/>
<stop offset="0.2601" stop-color="#565656"/>
<stop offset="0.3373" stop-color="#363636"/>
<stop offset="0.4175" stop-color="#1E1E1E"/>
<stop offset="0.5022" stop-color="#0D0D0D"/>
<stop offset="0.5942" stop-color="#030303"/>
<stop offset="0.7074"/>
</linearGradient>
<linearGradient id="paint5_linear_6_570" x1="120.578" y1="34.933" x2="120.931" y2="39.2449" gradientUnits="userSpaceOnUse">
<stop stop-color="white"/>
<stop offset="0.0427" stop-color="#DCDCDC"/>
<stop offset="0.1123" stop-color="#A9A9A9"/>
<stop offset="0.1853" stop-color="#7C7C7C"/>
<stop offset="0.2601" stop-color="#565656"/>
<stop offset="0.3373" stop-color="#363636"/>
<stop offset="0.4175" stop-color="#1E1E1E"/>
<stop offset="0.5022" stop-color="#0D0D0D"/>
<stop offset="0.5942" stop-color="#030303"/>
<stop offset="0.7074"/>
</linearGradient>
<linearGradient id="paint6_linear_6_570" x1="117.386" y1="37.1086" x2="117.153" y2="42.8739" gradientUnits="userSpaceOnUse">
<stop stop-color="white"/>
<stop offset="0.0954" stop-color="#CCCCCC"/>
<stop offset="0.2091" stop-color="#979797"/>
<stop offset="0.3243" stop-color="#686868"/>
<stop offset="0.4385" stop-color="#434343"/>
<stop offset="0.5516" stop-color="#262626"/>
<stop offset="0.6633" stop-color="#111111"/>
<stop offset="0.773" stop-color="#040404"/>
<stop offset="0.8783"/>
</linearGradient>
<linearGradient id="paint7_linear_6_570" x1="105.097" y1="61.3237" x2="105.247" y2="41.775" gradientUnits="userSpaceOnUse">
<stop offset="0.0838"/>
<stop offset="0.1116" stop-color="#333333"/>
<stop offset="0.1448" stop-color="#686868"/>
<stop offset="0.1785" stop-color="#979797"/>
<stop offset="0.2119" stop-color="#BCBCBC"/>
<stop offset="0.2449" stop-color="#D9D9D9"/>
<stop offset="0.2775" stop-color="#EEEEEE"/>
<stop offset="0.3096" stop-color="#FBFBFB"/>
<stop offset="0.3403" stop-color="white"/>
<stop offset="0.5602" stop-color="white"/>
</linearGradient>
<linearGradient id="paint8_linear_6_570" x1="110.681" y1="67.751" x2="103.385" y2="48.8229" gradientUnits="userSpaceOnUse">
<stop offset="0.4551" stop-color="#E1DA1D"/>
<stop offset="0.4832" stop-color="#E4DE33"/>
<stop offset="0.5583" stop-color="#EBE668"/>
<stop offset="0.6343" stop-color="#F1EE97"/>
<stop offset="0.7097" stop-color="#F6F4BC"/>
<stop offset="0.7844" stop-color="#FAF9D9"/>
<stop offset="0.8581" stop-color="#FDFCEE"/>
<stop offset="0.9305" stop-color="#FEFEFB"/>
<stop offset="1" stop-color="white"/>
</linearGradient>
<linearGradient id="paint9_linear_6_570" x1="132.825" y1="42.5483" x2="134.464" y2="62.8274" gradientUnits="userSpaceOnUse">
<stop/>
<stop offset="0.037" stop-color="#333333"/>
<stop offset="0.081" stop-color="#686868"/>
<stop offset="0.1257" stop-color="#979797"/>
<stop offset="0.1699" stop-color="#BCBCBC"/>
<stop offset="0.2138" stop-color="#D9D9D9"/>
<stop offset="0.257" stop-color="#EEEEEE"/>
<stop offset="0.2995" stop-color="#FBFBFB"/>
<stop offset="0.3403" stop-color="white"/>
<stop offset="0.5602" stop-color="white"/>
</linearGradient>
<linearGradient id="paint10_linear_6_570" x1="129.365" y1="68.7786" x2="131.387" y2="50.0359" gradientUnits="userSpaceOnUse">
<stop offset="0.4551" stop-color="#E1DA1D"/>
<stop offset="0.4832" stop-color="#E4DE33"/>
<stop offset="0.5583" stop-color="#EBE668"/>
<stop offset="0.6343" stop-color="#F1EE97"/>
<stop offset="0.7097" stop-color="#F6F4BC"/>
<stop offset="0.7844" stop-color="#FAF9D9"/>
<stop offset="0.8581" stop-color="#FDFCEE"/>
<stop offset="0.9305" stop-color="#FEFEFB"/>
<stop offset="1" stop-color="white"/>
</linearGradient>
<linearGradient id="paint11_linear_6_570" x1="130.451" y1="53.2066" x2="131.602" y2="56.7938" gradientUnits="userSpaceOnUse">
<stop offset="0.062" stop-color="#454544"/>
<stop offset="0.0748" stop-color="#6A6A69"/>
<stop offset="0.0928" stop-color="#979797"/>
<stop offset="0.1108" stop-color="#BDBDBC"/>
<stop offset="0.1287" stop-color="#DADAD9"/>
<stop offset="0.1464" stop-color="#EEEEEE"/>
<stop offset="0.1637" stop-color="#FBFBFB"/>
<stop offset="0.1803" stop-color="white"/>
<stop offset="1"/>
</linearGradient>
</defs>
</svg>
