<svg width="151" height="42" viewBox="0 0 151 42" fill="none" xmlns="http://www.w3.org/2000/svg">
<g filter="url(#filter0_d_6_567)">
<path fill-rule="evenodd" clip-rule="evenodd" d="M55.6846 10.3946L55.804 12.2752C57.166 10.8207 58.9542 10.0934 61.1675 10.0934C65.003 10.0934 66.9552 12.0339 67.0232 15.9149V26.6679H62.8877V16.1253C62.8877 15.0926 62.6353 14.3286 62.1305 13.8315C61.6257 13.3353 60.7996 13.0871 59.6531 13.0871C57.9844 13.0871 56.7408 13.7545 55.9254 15.0875V26.6679H51.788V10.3946H55.6866H55.6846ZM79.35 26.9691C76.7289 26.9691 74.6029 26.2401 72.975 24.7813C71.346 23.3226 70.5315 21.3795 70.5315 18.9531V18.5022C70.5315 16.8783 70.8859 15.4263 71.5955 14.1481C72.3042 12.8698 73.3011 11.8748 74.5835 11.1621C75.8659 10.4511 77.2958 10.0951 78.8743 10.0951C81.3818 10.0951 83.3204 10.8019 84.6873 12.2153C86.056 13.6296 86.7395 15.6291 86.7395 18.2164V19.6906H74.702C74.8282 21.0338 75.3349 22.0965 76.2261 22.8785C77.1172 23.6605 78.2385 24.0515 79.5888 24.0515C81.4837 24.0515 83.0273 23.3756 84.2194 22.0212L86.4492 23.9018C85.7114 24.8737 84.7271 25.6284 83.4961 26.1648C82.2642 26.7013 80.8828 26.9691 79.351 26.9691H79.35ZM78.8568 13.0281C77.721 13.0281 76.8056 13.3789 76.1076 14.0805C75.4087 14.7821 74.9641 15.76 74.7709 17.0134H82.6535V16.7422C82.5623 15.5187 82.1934 14.5947 81.5468 13.9675C80.8993 13.3412 80.0033 13.0281 78.8568 13.0281V13.0281ZM95.1317 6.44006V10.3955H98.3838V13.1025H95.1317V22.1863C95.1317 22.8075 95.2715 23.2558 95.5492 23.5322C95.8268 23.8077 96.3239 23.9454 97.0393 23.9454C97.5264 23.9442 98.0117 23.8937 98.4857 23.7948V26.6226C97.5441 26.8536 96.6364 26.9682 95.7618 26.9682C92.5845 26.9682 90.9953 25.4196 90.9953 22.3215V13.1017H87.9626V10.3946H90.9934V6.43921H95.1298L95.1317 6.44006ZM105.943 26.6688H101.806V3.56785H105.943V26.6688ZM114.847 26.6688H110.71V10.3955H114.847V26.6688ZM110.454 6.16884C110.454 5.60843 110.655 5.14213 111.058 4.77081C111.462 4.40034 112.038 4.21468 112.786 4.21468C113.536 4.21468 114.114 4.40034 114.524 4.77081C114.932 5.14213 115.135 5.60843 115.135 6.1697C115.135 6.7207 114.932 7.17929 114.524 7.54548C114.114 7.91168 113.536 8.09477 112.786 8.09477C112.038 8.09477 111.462 7.91168 111.058 7.54548C110.655 7.18015 110.454 6.7207 110.454 6.1697V6.16884ZM120.806 26.6688V13.1017H117.996V10.3946H120.806V8.90587C120.806 7.10058 121.373 5.70768 122.507 4.72461C123.643 3.74239 125.231 3.25128 127.274 3.25128C128.001 3.25128 128.773 3.34112 129.59 3.52165L129.488 6.37932C128.966 6.29392 128.436 6.2538 127.905 6.25953C125.929 6.25953 124.942 7.15619 124.942 8.95122V10.3946H128.687V13.1017H124.942V26.6679H120.806V26.6688ZM138.153 21.4351L141.898 10.3955H146.308L138.988 29.1354C137.864 31.8725 135.957 33.2414 133.267 33.2414C132.665 33.2414 132.001 33.1507 131.275 32.9702V30.1425L132.059 30.1878C133.102 30.1878 133.889 30.0201 134.417 29.6839C134.944 29.3485 135.361 28.7846 135.668 27.9924L136.263 26.5935L129.794 10.3955H134.255L138.153 21.4351Z" fill="#726A6D"/>
<path d="M30.9466 11.3845L30.933 11.3794C30.9252 11.3768 30.9174 11.3743 30.9106 11.3683C30.8995 11.3577 30.8913 11.3451 30.8865 11.3313C30.8818 11.3175 30.8808 11.3029 30.8835 11.2887L31.6339 7.24518L35.1529 10.3475L31.4931 11.7199C31.4829 11.7235 31.472 11.7253 31.4611 11.725H31.4465C31.4394 11.7209 31.4328 11.7161 31.4271 11.7105C31.2909 11.5768 31.128 11.4664 30.9466 11.3845ZM36.0508 11.1381L39.8135 14.4544C40.595 15.144 40.9862 15.4879 41.1289 15.8866C41.1503 15.9457 41.1678 16.0047 41.1814 16.0655L32.1891 12.709C32.1843 12.7072 32.1795 12.7055 32.1746 12.7038C32.1387 12.691 32.0969 12.6765 32.0969 12.6439C32.0969 12.6114 32.1396 12.596 32.1755 12.5832L32.1872 12.5789L36.0508 11.1381ZM41.028 17.1298C40.8338 17.4515 40.4552 17.7852 39.8145 18.3507L35.5723 22.0888L30.0855 21.0818L30.0564 21.0766C30.0078 21.0698 29.9564 21.0621 29.9564 21.0236C29.9355 20.8241 29.8683 20.6305 29.7589 20.4549C29.6495 20.2793 29.5003 20.1254 29.3205 20.0029C29.2982 19.9832 29.304 19.9524 29.3108 19.9242C29.3108 19.9199 29.3108 19.9156 29.3128 19.9122L30.3447 14.3286L30.3486 14.3098C30.3544 14.267 30.3631 14.2174 30.4068 14.2174C30.628 14.1931 30.8414 14.1303 31.0347 14.0327C31.2281 13.935 31.3974 13.8044 31.5329 13.6484C31.5416 13.6399 31.5475 13.6304 31.5591 13.6253C31.5902 13.6125 31.6271 13.6253 31.6591 13.6373L41.028 17.1298ZM34.5966 22.9487L27.6207 29.0969L28.8148 22.6287L28.8167 22.6201C28.8177 22.6116 28.8196 22.603 28.8225 22.5953C28.8322 22.5748 28.8575 22.5662 28.8817 22.5577L28.8934 22.5534C29.1548 22.4551 29.3861 22.3035 29.5681 22.111C29.5914 22.0871 29.6195 22.064 29.6554 22.0597C29.6648 22.0584 29.6743 22.0584 29.6836 22.0597L34.5957 22.9495L34.5966 22.9487ZM26.1442 30.3983L25.3578 31.0913L16.6646 20.0183C16.6615 20.0142 16.6582 20.0102 16.6549 20.0063C16.6413 19.99 16.6268 19.9738 16.6297 19.955C16.6297 19.9413 16.6404 19.9293 16.651 19.919L16.6607 19.9079C16.687 19.8737 16.7093 19.8395 16.7336 19.8027L16.753 19.7727L16.7559 19.7702C16.7695 19.7496 16.7821 19.7299 16.8054 19.7188C16.8258 19.7103 16.8539 19.7137 16.8763 19.718L26.5072 21.4685C26.5342 21.4722 26.5596 21.4819 26.581 21.4967C26.5936 21.5079 26.5965 21.5198 26.5995 21.5335C26.6666 21.7575 26.7917 21.9648 26.9648 22.1392C27.1379 22.3136 27.3544 22.4504 27.5974 22.5388C27.6246 22.5508 27.6129 22.5773 27.6003 22.6056C27.594 22.6179 27.5891 22.6308 27.5858 22.6441C27.4644 23.2943 26.4238 28.8882 26.1442 30.3983ZM24.5016 31.8451C23.9221 32.3507 23.5804 32.6185 23.194 32.7263C22.8131 32.8325 22.4042 32.8325 22.0233 32.7263C21.5709 32.5997 21.1797 32.2558 20.3982 31.5662L11.6681 23.8718L13.9484 20.7549C13.9591 20.7395 13.9698 20.7258 13.9873 20.7147C14.0115 20.6993 14.0465 20.7062 14.0756 20.7147C14.599 20.8539 15.161 20.8288 15.6657 20.6437C15.6919 20.6352 15.7181 20.6292 15.7385 20.6454C15.7487 20.6536 15.7578 20.6628 15.7657 20.6728L24.5016 31.8451ZM10.8264 23.13L8.82374 21.365L12.7786 19.878C12.7888 19.8741 12.7997 19.872 12.8107 19.872C12.8437 19.872 12.8631 19.9011 12.8806 19.9276C12.9203 19.9815 12.9624 20.034 13.0068 20.085L13.0194 20.0987C13.031 20.1132 13.0233 20.1278 13.0116 20.1415L10.8264 23.13ZM7.93743 20.5838L5.40373 18.3507C4.97271 17.9708 4.66012 17.6953 4.44267 17.4583L12.1467 18.8666C12.1564 18.8682 12.1661 18.8697 12.1758 18.8709C12.2234 18.8778 12.2758 18.8855 12.2758 18.9248C12.2758 18.9676 12.2185 18.9873 12.17 19.0035L12.1476 19.0121L7.93743 20.5838ZM4 16.3101C4.00878 16.1663 4.03814 16.024 4.08737 15.8866C4.23104 15.4879 4.62129 15.144 5.40373 14.4544L8.64609 11.5967C10.139 13.5063 11.6359 15.4134 13.1369 17.318C13.1631 17.3488 13.1922 17.3831 13.1621 17.4087C13.0204 17.5465 12.8786 17.6971 12.7786 17.8605C12.7678 17.8815 12.7511 17.8997 12.7301 17.9135C12.7175 17.9204 12.7039 17.9178 12.6893 17.9152H12.6874L4 16.3101ZM9.51396 10.8318L13.8717 6.98936C14.2824 7.14765 15.7744 7.70292 17.1073 8.19917C18.1169 8.57562 19.0372 8.91786 19.3265 9.02909C19.3556 9.03935 19.3818 9.04962 19.3944 9.07529C19.4022 9.09069 19.3983 9.11037 19.3944 9.12662C19.3254 9.40399 19.3357 9.69211 19.4243 9.96511C19.5129 10.2381 19.6771 10.4874 19.9021 10.6906C19.9313 10.7163 19.9021 10.7531 19.8769 10.7848L19.8633 10.8027L15.4366 16.8457C15.425 16.8629 15.4143 16.8774 15.3949 16.8885C15.3716 16.9014 15.3386 16.8954 15.3114 16.8894C15.1392 16.8496 14.9622 16.8284 14.7843 16.8261C14.625 16.8261 14.4522 16.8517 14.2775 16.88C14.2581 16.8825 14.2397 16.886 14.2241 16.8757C14.207 16.8633 14.1922 16.8486 14.1804 16.8321L9.51396 10.8318ZM14.7542 6.21334L20.3982 1.23895C21.1797 0.550201 21.5709 0.205399 22.0233 0.0796276C22.4042 -0.0265425 22.8131 -0.0265425 23.194 0.0796276C23.6464 0.205399 24.0376 0.550201 24.8191 1.23895L26.0422 2.31699L22.0281 7.79618C22.0182 7.81213 22.0046 7.82611 21.9883 7.83725C21.964 7.8518 21.9301 7.84581 21.9009 7.83725C21.5845 7.7526 21.2493 7.73719 20.9246 7.79235C20.5998 7.84751 20.2952 7.97158 20.0371 8.15382C20.0109 8.17778 19.972 8.16409 19.939 8.15125C19.4148 7.95019 15.3376 6.43152 14.7542 6.21334ZM26.8946 3.0682L30.601 6.33484L29.7079 11.21V11.2228C29.7071 11.2339 29.7044 11.2449 29.7001 11.2553C29.6904 11.2724 29.671 11.2759 29.6516 11.281C29.4606 11.332 29.2808 11.4109 29.1196 11.5146C29.1126 11.5189 29.1061 11.5238 29.1002 11.5291C29.0895 11.5394 29.0788 11.5488 29.0613 11.5505C29.0471 11.5509 29.0329 11.5489 29.0196 11.5445L23.3717 9.4295L23.361 9.42522C23.3251 9.41239 23.2823 9.39699 23.2823 9.36448C23.2492 9.08708 23.1464 8.81967 22.9814 8.58161C22.9542 8.54226 22.9241 8.50119 22.9474 8.46098L26.8946 3.0682ZM23.0775 10.4314L28.3721 12.4078C28.4012 12.4198 28.4332 12.4309 28.4459 12.4574C28.4509 12.4734 28.4509 12.4902 28.4459 12.5062C28.4303 12.5746 28.4167 12.6525 28.4167 12.7312V12.8621C28.4167 12.8946 28.3789 12.9083 28.3439 12.9212L28.3333 12.9246C27.4945 13.2403 16.5578 17.3505 16.5413 17.3505C16.5248 17.3505 16.5074 17.3505 16.4909 17.336C16.4617 17.3103 16.4909 17.2744 16.5171 17.2419C16.5217 17.2362 16.5262 17.2305 16.5307 17.2248L20.8816 11.287L20.8894 11.2767C20.9146 11.2408 20.9438 11.2006 20.9904 11.2006L21.0341 11.2066C21.1331 11.2185 21.2204 11.2297 21.3088 11.2297C21.9689 11.2297 22.5805 10.9465 22.9494 10.4622C22.9582 10.4493 22.9693 10.4377 22.9824 10.428C23.0086 10.4109 23.0474 10.4194 23.0775 10.4314ZM17.0141 18.29L28.9351 13.8093C28.9351 13.8093 28.9526 13.8093 28.9691 13.8238C29.0341 13.8811 29.0895 13.9196 29.1429 13.9556L29.1691 13.9701C29.1933 13.9821 29.2176 13.9958 29.2196 14.018C29.2196 14.0266 29.2196 14.0317 29.2176 14.0394L28.1964 19.5682L28.1925 19.5905C28.1857 19.6333 28.1789 19.682 28.1333 19.682C27.861 19.6982 27.5973 19.7727 27.3651 19.899C27.1328 20.0252 26.939 20.1995 26.8004 20.4067L26.7956 20.4136C26.782 20.4332 26.7693 20.4521 26.747 20.4623C26.7266 20.4709 26.7004 20.4675 26.6791 20.4632L17.1723 18.7349C17.1626 18.7332 17.0248 18.2908 17.0141 18.29Z" fill="#726A6D"/>
</g>
<defs>
<filter id="filter0_d_6_567" x="0" y="0" width="150.308" height="41.2414" filterUnits="userSpaceOnUse" color-interpolation-filters="sRGB">
<feFlood flood-opacity="0" result="BackgroundImageFix"/>
<feColorMatrix in="SourceAlpha" type="matrix" values="0 0 0 0 0 0 0 0 0 0 0 0 0 0 0 0 0 0 127 0" result="hardAlpha"/>
<feOffset dy="4"/>
<feGaussianBlur stdDeviation="2"/>
<feComposite in2="hardAlpha" operator="out"/>
<feColorMatrix type="matrix" values="0 0 0 0 0 0 0 0 0 0 0 0 0 0 0 0 0 0 0.25 0"/>
<feBlend mode="normal" in2="BackgroundImageFix" result="effect1_dropShadow_6_567"/>
<feBlend mode="normal" in="SourceGraphic" in2="effect1_dropShadow_6_567" result="shape"/>
</filter>
</defs>
</svg>
